<mxfile host="app.diagrams.net" modified="2023-05-28T03:41:04.702Z" agent="Mozilla/5.0 (Windows NT 10.0; Win64; x64) AppleWebKit/537.36 (KHTML, like Gecko) Chrome/113.0.0.0 Safari/537.36" version="21.3.0" etag="c9XYqlgosr2myiRAcNrP" type="github">
  <diagram name="Page-1" id="SeIAk-G6w8I3j0dbDePv">
    <mxGraphModel>
      <root>
        <mxCell id="0" />
        <mxCell id="1" parent="0" />
      </root>
    </mxGraphModel>
  </diagram>
</mxfile>
